<?xml version="1.0" encoding="UTF-8"?>
<svg xmlns="http://www.w3.org/2000/svg" xmlns:xlink="http://www.w3.org/1999/xlink" width="125pt" height="125pt" viewBox="0 0 125 125" version="1.1">
<defs>
<linearGradient id="linear0" gradientUnits="userSpaceOnUse" x1="-20.152543" y1="-20.152543" x2="20.152543" y2="20.152543" gradientTransform="matrix(1,0,0,1,95.408965,91.5)">
<stop offset="0" style="stop-color:rgb(25.1%,38.8%,84.7%);stop-opacity:1;"/>
<stop offset="1" style="stop-color:rgb(58.4%,34.5%,69.8%);stop-opacity:1;"/>
</linearGradient>
</defs>
<g id="surface1">
<path style=" stroke:none;fill-rule:nonzero;fill:rgb(79.6%,23.5%,20%);fill-opacity:1;" d="M 58.089844 91.5 C 58.089844 107.238281 45.332031 120 29.589844 120 C 13.851562 120 1.089844 107.238281 1.089844 91.5 C 1.089844 75.761719 13.851562 63 29.589844 63 C 45.332031 63 58.089844 75.761719 58.089844 91.5 "/>
<path style=" stroke:none;fill-rule:nonzero;fill:rgb(22%,59.6%,14.9%);fill-opacity:1;" d="M 91 34.5 C 91 50.238281 78.238281 63 62.5 63 C 46.761719 63 34 50.238281 34 34.5 C 34 18.761719 46.761719 6 62.5 6 C 78.238281 6 91 18.761719 91 34.5 "/>
<path style=" stroke:none;fill-rule:nonzero;fill:rgb(58.4%,34.5%,69.8%);fill-opacity:1;" d="M 123.910156 91.5 C 123.910156 107.238281 111.148438 120 95.410156 120 C 79.667969 120 66.910156 107.238281 66.910156 91.5 C 66.910156 75.761719 79.667969 63 95.410156 63 C 111.148438 63 123.910156 75.761719 123.910156 91.5 "/>
<path style=" stroke:none;fill-rule:nonzero;fill:rgb(29.2%,17.25%,34.9%);fill-opacity:1;" d="M 123.910156 91.5 C 123.910156 107.238281 111.148438 120 95.410156 120 C 79.667969 120 66.910156 107.238281 66.910156 91.5 C 66.910156 75.761719 79.667969 63 95.410156 63 C 111.148438 63 123.910156 75.761719 123.910156 91.5 "/>
<path style=" stroke:none;fill-rule:nonzero;fill:url(#linear0);" d="M 122.007812 91.5 C 122.007812 106.191406 110.101562 118.101562 95.410156 118.101562 C 80.71875 118.101562 68.808594 106.191406 68.808594 91.5 C 68.808594 76.808594 80.71875 64.898438 95.410156 64.898438 C 110.101562 64.898438 122.007812 76.808594 122.007812 91.5 "/>
<path style=" stroke:none;fill-rule:nonzero;fill:rgb(100%,100%,100%);fill-opacity:1;" d="M 80.273438 102.835938 C 76.609375 96.609375 96.511719 90.25 96.511719 90.25 C 96.511719 90.25 76.402344 89.539062 80.726562 80.894531 C 88.300781 65.757812 105.5625 76.820312 105.5625 76.820312 C 92.269531 77.101562 84.878906 77.378906 85.398438 82.285156 C 85.910156 87.074219 102.203125 87.210938 102.503906 90.246094 C 102.871094 93.933594 86.410156 94.203125 88.402344 101.675781 C 90.292969 108.773438 111.03125 101.605469 111.03125 101.605469 C 102.3125 113.285156 85.804688 112.230469 80.273438 102.835938 "/>
</g>
</svg>
